<svg xmlns="http://www.w3.org/2000/svg" xmlns:xlink="http://www.w3.org/1999/xlink" preserveAspectRatio="xMidYMid" width="54" height="40" viewBox="0 0 54 40">
  <path d="M54.000,26.000 C54.000,26.000 54.000,40.000 54.000,40.000 C54.000,40.000 -0.000,40.000 -0.000,40.000 C-0.000,40.000 -0.000,26.000 -0.000,26.000 C3.314,26.000 6.000,23.314 6.000,20.000 C6.000,16.686 3.314,14.000 -0.000,14.000 C-0.000,14.000 -0.000,-0.000 -0.000,-0.000 C-0.000,-0.000 54.000,-0.000 54.000,-0.000 C54.000,-0.000 54.000,14.000 54.000,14.000 C50.686,14.000 48.000,16.686 48.000,20.000 C48.000,23.314 50.686,26.000 54.000,26.000 ZM46.000,20.000 C46.000,16.274 48.551,13.152 52.000,12.262 C52.000,12.262 52.000,2.000 52.000,2.000 C52.000,2.000 2.000,2.000 2.000,2.000 C2.000,2.000 2.000,12.262 2.000,12.262 C5.449,13.152 8.000,16.274 8.000,20.000 C8.000,23.726 5.449,26.848 2.000,27.738 C2.000,27.738 2.000,38.000 2.000,38.000 C2.000,38.000 52.000,38.000 52.000,38.000 C52.000,38.000 52.000,27.738 52.000,27.738 C48.551,26.848 46.000,23.726 46.000,20.000 ZM34.000,32.000 C31.239,32.000 29.000,29.761 29.000,27.000 C29.000,24.239 31.239,22.000 34.000,22.000 C36.761,22.000 39.000,24.239 39.000,27.000 C39.000,29.761 36.761,32.000 34.000,32.000 ZM34.000,24.000 C32.343,24.000 31.000,25.343 31.000,27.000 C31.000,28.657 32.343,30.000 34.000,30.000 C35.657,30.000 37.000,28.657 37.000,27.000 C37.000,25.343 35.657,24.000 34.000,24.000 ZM15.000,30.000 C15.000,30.000 38.000,8.000 38.000,8.000 C38.000,8.000 39.000,10.000 39.000,10.000 C39.000,10.000 16.000,32.000 16.000,32.000 C16.000,32.000 15.000,30.000 15.000,30.000 ZM20.000,18.000 C17.239,18.000 15.000,15.761 15.000,13.000 C15.000,10.239 17.239,8.000 20.000,8.000 C22.761,8.000 25.000,10.239 25.000,13.000 C25.000,15.761 22.761,18.000 20.000,18.000 ZM20.000,10.000 C18.343,10.000 17.000,11.343 17.000,13.000 C17.000,14.657 18.343,16.000 20.000,16.000 C21.657,16.000 23.000,14.657 23.000,13.000 C23.000,11.343 21.657,10.000 20.000,10.000 Z" id="path-1" class="cls-2" fill-rule="evenodd"/>
</svg>
