<svg xmlns="http://www.w3.org/2000/svg" xmlns:xlink="http://www.w3.org/1999/xlink" preserveAspectRatio="xMidYMid" width="48" height="46" viewBox="0 0 48 46">
  <path d="M47.000,25.000 C47.000,25.000 45.957,24.000 45.957,24.000 C45.957,24.000 46.000,24.000 46.000,24.000 C46.000,24.000 41.000,19.227 41.000,19.227 C41.000,19.227 41.000,7.000 41.000,7.000 C41.000,7.000 36.000,7.000 36.000,7.000 C36.000,7.000 36.000,14.454 36.000,14.454 C36.000,14.454 34.000,12.545 34.000,12.545 C34.000,12.545 34.000,12.542 34.000,12.542 C34.000,12.542 24.000,2.958 24.000,2.958 C24.000,2.958 1.000,25.000 1.000,25.000 C1.000,25.000 -0.000,23.000 -0.000,23.000 C-0.000,23.000 24.000,-0.000 24.000,-0.000 C24.000,-0.000 34.000,9.583 34.000,9.583 C34.000,9.583 34.000,5.000 34.000,5.000 C34.000,5.000 43.000,5.000 43.000,5.000 C43.000,5.000 43.000,18.208 43.000,18.208 C43.000,18.208 48.000,23.000 48.000,23.000 C48.000,23.000 47.000,25.000 47.000,25.000 ZM7.000,44.000 C7.000,44.000 41.000,44.000 41.000,44.000 C41.000,44.000 41.000,24.000 41.000,24.000 C41.000,24.000 43.000,24.000 43.000,24.000 C43.000,24.000 43.000,46.000 43.000,46.000 C43.000,46.000 5.000,46.000 5.000,46.000 C5.000,46.000 5.000,24.000 5.000,24.000 C5.000,24.000 7.000,24.000 7.000,24.000 C7.000,24.000 7.000,44.000 7.000,44.000 Z" id="path-1" class="cls-2" fill-rule="evenodd"/>
</svg>
