<svg xmlns="http://www.w3.org/2000/svg" xmlns:xlink="http://www.w3.org/1999/xlink" preserveAspectRatio="xMidYMid" width="48" height="48" viewBox="0 0 48 48">
  <path d="M48.000,24.000 C48.000,37.255 37.255,48.000 24.000,48.000 C10.745,48.000 -0.000,37.255 -0.000,24.000 C-0.000,10.745 10.745,-0.000 24.000,-0.000 C29.602,-0.000 34.743,1.935 38.826,5.152 C38.826,5.152 37.860,6.923 37.860,6.923 C34.076,3.849 29.256,2.000 24.000,2.000 C11.850,2.000 2.000,11.850 2.000,24.000 C2.000,36.150 11.850,46.000 24.000,46.000 C36.150,46.000 46.000,36.150 46.000,24.000 C46.000,19.501 44.637,15.326 42.318,11.843 C42.318,11.843 33.000,37.000 33.000,37.000 C33.000,37.000 31.000,37.000 31.000,37.000 C31.000,37.000 24.000,18.000 24.000,18.000 C24.000,18.000 17.000,37.000 17.000,37.000 C17.000,37.000 15.000,37.000 15.000,37.000 C15.000,37.000 8.000,18.000 8.000,18.000 C8.000,18.000 10.000,18.000 10.000,18.000 C10.000,18.000 16.000,35.000 16.000,35.000 C16.000,35.000 23.000,15.000 23.000,15.000 C23.000,15.000 25.000,15.000 25.000,15.000 C25.000,15.000 32.000,35.000 32.000,35.000 C32.000,35.000 41.000,10.000 41.000,10.000 C41.000,10.000 41.200,10.000 41.200,10.000 C41.200,10.000 41.955,8.113 41.955,8.113 C45.705,12.347 48.000,17.899 48.000,24.000 Z" id="path-1" class="cls-2" fill-rule="evenodd"/>
</svg>
