<svg xmlns="http://www.w3.org/2000/svg" xmlns:xlink="http://www.w3.org/1999/xlink" preserveAspectRatio="xMidYMid" width="44" height="48" viewBox="0 0 44 48">
  <path d="M0.000,48.000 C0.000,48.000 0.000,42.000 0.000,42.000 C0.000,37.060 2.987,32.820 7.252,30.980 C7.666,31.558 8.126,32.099 8.634,32.593 C4.770,33.977 2.000,37.660 2.000,42.000 C2.000,42.000 2.000,46.000 2.000,46.000 C2.000,46.000 42.000,46.000 42.000,46.000 C42.000,46.000 42.000,42.000 42.000,42.000 C42.000,37.660 39.230,33.977 35.366,32.593 C35.874,32.099 36.334,31.558 36.748,30.980 C41.013,32.820 44.000,37.060 44.000,42.000 C44.000,42.000 44.000,48.000 44.000,48.000 C44.000,48.000 0.000,48.000 0.000,48.000 ZM25.000,34.000 C25.000,34.000 19.000,34.000 19.000,34.000 C12.373,34.000 7.000,28.627 7.000,22.000 C7.000,22.000 7.000,12.000 7.000,12.000 C7.000,5.373 12.373,-0.000 19.000,-0.000 C19.000,-0.000 25.000,-0.000 25.000,-0.000 C31.627,-0.000 37.000,5.373 37.000,12.000 C37.000,12.000 37.000,22.000 37.000,22.000 C37.000,28.627 31.627,34.000 25.000,34.000 ZM35.000,12.000 C35.000,6.477 30.523,2.000 25.000,2.000 C25.000,2.000 19.000,2.000 19.000,2.000 C13.477,2.000 9.000,6.477 9.000,12.000 C9.000,12.000 9.000,22.000 9.000,22.000 C9.000,27.523 13.477,32.000 19.000,32.000 C19.000,32.000 25.000,32.000 25.000,32.000 C30.523,32.000 35.000,27.523 35.000,22.000 C35.000,22.000 35.000,12.000 35.000,12.000 ZM22.000,28.000 C18.083,28.000 14.760,25.493 13.523,22.000 C13.523,22.000 15.700,22.000 15.700,22.000 C16.825,24.358 19.212,26.000 22.000,26.000 C24.788,26.000 27.175,24.358 28.300,22.000 C28.300,22.000 30.477,22.000 30.477,22.000 C29.240,25.493 25.917,28.000 22.000,28.000 Z" id="path-1" class="cls-2" fill-rule="evenodd"/>
</svg>
